#!OML:ASF E:\id_vita\Project 1\Capture day 1\Session 1\Female.ASF
:FULLY-SPECIFIED
:DEGREES
460
root 38.9251 16.048 -0.963837 713.902 80.2214 699.992
lowerback -19.5129 3.74189 -1.02521
upperback -4.46232 5.35715 0.100117
thorax 5.94856 2.7074 1.98616
lowerneck 1.11423 -0.245417 -2.59174
upperneck 23.4868 -0.462096 6.16472
head 6.97908 0.418438 2.47365
rclavicle 2.32827e-014 -3.97569e-016
rhumerus -23.2994 -10.279 -90.4686
rradius 35.5372
rwrist -1.24343
rhand -17.7554 7.14671
rfingers 7.12502
rthumb 8.50643 -22.662
lclavicle 2.32827e-014 -3.97569e-016
lhumerus -123.234 27.5375 -53.6526
lradius 13.5012
lwrist -124.797
lhand -5.78161 27.1354
lfingers 7.12502
lthumb 20.0423 56.1217
rfemur 6.85392 6.606 24.9575
rtibia 19.0348
rfoot -11.3786 4.64481
rtoes -13.8638
lfemur -43.3642 -6.9058 -10.9133
ltibia 23.6346
lfoot -4.63023 12.9398
ltoes -15.0575
461
root 39.1198 16.0607 -0.980265 716.978 80.5115 702.843
lowerback -19.7183 3.59053 -1.52323
upperback -4.87921 5.2957 -0.114768
thorax 5.58672 2.69353 2.0166
lowerneck 1.04597 -0.269308 -2.72668
upperneck 23.9326 -0.524156 6.42147
head 7.13995 0.416794 2.58934
rclavicle 8.40611e-014 2.34566e-014
rhumerus -24.4251 -11.0531 -90.4113
rradius 35.3009
rwrist -0.781332
rhand -17.237 7.33712
rfingers 7.12502
rthumb 9.00669 -22.4506
lclavicle 8.40611e-014 2.34566e-014
lhumerus -123.923 26.695 -55.519
lradius 13.6091
lwrist -126.916
lhand -5.94488 26.6318
lfingers 7.12502
lthumb 19.8853 55.6345
rfemur 6.3949 5.57586 24.0375
rtibia 20.4331
rfoot -10.6743 5.75563
rtoes -13.5043
lfemur -43.8839 -6.05488 -12.3414
ltibia 25.0509
lfoot -4.54154 10.5189
ltoes -12.9044
462
root 39.3101 16.0697 -1.00027 717.957 80.8306 703.708
lowerback -20.5911 3.42474 -1.59864
upperback -4.61037 5.10906 -0.172024
thorax 6.34155 2.57914 2.0321
lowerneck 0.781348 -0.235405 -2.92973
upperneck 23.6815 -0.519417 6.59817
head 7.10214 0.404026 2.67732
rclavicle 5.41688e-015 1.98785e-015
rhumerus -24.3881 -11.5852 -90.4693
rradius 34.6894
rwrist -0.180762
rhand -16.9421 7.59846
rfingers 7.12502
rthumb 9.29119 -22.1768
lclavicle 5.41688e-015 1.98785e-015
lhumerus -125.091 27.1841 -56.1956
lradius 13.609
lwrist -126.69
lhand -5.58211 26.8699
lfingers 7.12502
lthumb 20.234 55.8361
rfemur 5.92351 4.36384 23.4963
rtibia 22.0959
rfoot -9.18946 6.76558
rtoes -11.1202
lfemur -44.2827 -5.25057 -13.4569
ltibia 26.2958
lfoot -4.10581 7.86828
ltoes -11.8897
463
root 39.4968 16.073 -1.02181 719.159 81.1387 704.999
lowerback -20.6166 3.24938 -1.81044
upperback -4.78724 4.93386 -0.181896
thorax 6.15344 2.50167 2.09041
lowerneck 0.942207 -0.181045 -2.86559
upperneck 23.7141 -0.421204 6.48716
head 7.08019 0.449488 2.63529
rclavicle -1.36913e-014 1.59028e-014
rhumerus -25.2859 -11.9669 -90.2781
rradius 34.1167
rwrist 0.307047
rhand -16.9634 8.18617
rfingers 7.12502
rthumb 9.27064 -21.59
lclavicle -1.36913e-014 1.59028e-014
lhumerus -125.241 27.4471 -55.9603
lradius 13.5699
lwrist -126.27
lhand -5.38295 26.9493
lfingers 7.12502
lthumb 20.4254 55.895
rfemur 5.53193 2.9707 22.8732
rtibia 23.979
rfoot -7.49477 7.64478
rtoes -8.32271
lfemur -43.9713 -4.17633 -14.9611
ltibia 27.3816
lfoot -4.40114 6.13005
ltoes -8.77232
464
root 39.6774 16.0858 -1.04665 721.644 81.4219 707.771
lowerback -20.356 3.30644 -1.95222
upperback -4.94475 5.05853 -0.48113
thorax 5.85795 2.57256 1.85515
lowerneck 1.12488 -0.308004 -2.83376
upperneck 23.6754 -0.610389 6.58956
head 7.04505 0.370942 2.6521
rclavicle -1.11319e-014 1.19271e-015
rhumerus -26.2687 -12.9635 -90.0495
rradius 33.5951
rwrist 0.820856
rhand -16.9842 8.50072
rfingers 7.12502
rthumb 9.25055 -21.2764
lclavicle -1.11319e-014 1.19271e-015
lhumerus -125.031 28.1908 -55.6166
lradius 13.4881
lwrist -126.197
lhand -5.47873 26.7351
lfingers 7.12502
lthumb 20.3334 55.6906
rfemur 5.21047 1.5318 21.9754
rtibia 26.0195
rfoot -6.11659 8.36361
rtoes -6.68294
lfemur -43.6047 -3.436 -16.4545
ltibia 28.3313
lfoot -4.79275 4.64964
ltoes -7.09475
465
root 39.846 16.1007 -1.06601 721.895 81.7452 708.318
lowerback -20.6869 3.24575 -1.96164
upperback -4.5458 4.97917 -0.512936
thorax 6.46859 2.5077 1.84881
lowerneck 0.573955 -0.346775 -2.88336
upperneck 23.6405 -0.668945 6.52587
head 7.13309 0.330322 2.63699
rclavicle -4.66399e-014 -2.14687e-014
rhumerus -26.1831 -13.6519 -89.9513
rradius 32.8841
rwrist 1.44608
rhand -16.902 8.11854
rfingers 7.12502
rthumb 9.32987 -21.655
lclavicle -4.66399e-014 -2.14687e-014
lhumerus -124.588 30.718 -52.8978
lradius 13.2696
lwrist -122.486
lhand -4.81892 27.2297
lfingers 7.12502
lthumb 20.9674 56.1164
rfemur 4.84412 0.234055 21.5181
rtibia 28.2231
rfoot -5.01032 8.69911
rtoes -7.12867
lfemur -43.2139 -2.83885 -17.4308
ltibia 29.1894
lfoot -5.3661 3.0576
ltoes -5.08345
466
root 40.0085 16.1141 -1.08811 722.653 82.0851 709.261
lowerback -20.1273 3.11034 -2.04688
upperback -4.91821 4.8183 -0.537803
thorax 5.77353 2.45524 1.7752
lowerneck 0.41955 -0.339903 -2.8994
upperneck 24.3932 -0.626468 6.46187
head 7.40808 0.374483 2.64069
rclavicle -1.94312e-014 -4.37326e-015
rhumerus -27.3272 -14.0031 -89.6576
rradius 32.1678
rwrist 1.79465
rhand -16.9213 7.76112
rfingers 7.12502
rthumb 9.31127 -22.0133
lclavicle -1.94312e-014 -4.37326e-015
lhumerus -123.566 31.8943 -50.7314
lradius 13.0977
lwrist -120.336
lhand -4.62754 27.2387
lfingers 7.12502
lthumb 21.1512 56.1049
rfemur 4.29781 -1.01336 21.0703
rtibia 30.539
rfoot -3.95489 8.7474
rtoes -8.14577
lfemur -42.8032 -2.44333 -18.2856
ltibia 29.8359
lfoot -5.84582 1.67638
ltoes -3.26759
467
root 40.1706 16.131 -1.10931 724.466 82.4945 711.447
lowerback -19.9356 2.93633 -2.37359
upperback -4.85653 4.6429 -0.452798
thorax 5.71292 2.36526 1.9969
lowerneck 1.12249 -0.271107 -3.18947
upperneck 23.573 -0.495552 6.33295
head 7.00714 0.370421 2.63242
rclavicle 4.80065e-014 8.74653e-015
rhumerus -27.9072 -14.1376 -89.2441
rradius 31.3433
rwrist 1.65138
rhand -17.029 7.833
rfingers 7.12502
rthumb 9.20732 -21.946
lclavicle 4.80065e-014 8.74653e-015
lhumerus -123.55 32.9574 -49.4254
lradius 12.9252
lwrist -119.241
lhand -4.72346 27.1883
lfingers 7.12502
lthumb 21.0591 56.0648
rfemur 3.85122 -2.30901 20.4725
rtibia 32.9673
rfoot -2.87626 8.61502
rtoes -8.58113
lfemur -42.0266 -2.26424 -19.2073
ltibia 30.3533
lfoot -6.26663 0.904017
ltoes -2.19887
468
root 40.3266 16.1547 -1.12757 725.328 82.8481 712.73
lowerback -19.9237 2.63406 -2.47326
upperback -4.49747 4.25238 -0.43403
thorax 6.10266 2.15199 1.99383
lowerneck 0.922408 -0.0476363 -2.82343
upperneck 23.2601 -0.149321 5.92134
head 6.92397 0.520054 2.44558
rclavicle -6.28657e-015 -1.19271e-015
rhumerus -27.8964 -14.4709 -89.2888
rradius 30.6945
rwrist 2.69034
rhand -16.3907 7.15434
rfingers 7.12502
rthumb 9.82326 -22.5965
lclavicle -6.28657e-015 -1.19271e-015
lhumerus -122.587 35.3949 -46.1892
lradius 12.6501
lwrist -115.456
lhand -4.59873 27.3946
lfingers 7.12502
lthumb 21.1789 56.2577
rfemur 3.32552 -3.31145 20.0937
rtibia 35.5192
rfoot -1.79828 8.18081
rtoes -9.1853
lfemur -41.0424 -2.10487 -19.9046
ltibia 30.7614
lfoot -6.86383 0.595132
ltoes -2.28657
469
root 40.4787 16.183 -1.15006 725.437 82.8995 713.085
lowerback -19.5091 2.64019 -2.26115
upperback -4.5658 4.20981 -0.512698
thorax 5.8336 2.1409 1.75266
lowerneck 0.65036 0.0242227 -2.57791
upperneck 23.5408 -0.0276888 5.73943
head 7.05937 0.594301 2.35815
rclavicle 2.48481e-015 4.37326e-015
rhumerus -28.5107 -15.0304 -89.1199
rradius 29.8985
rwrist 2.96235
rhand -16.1296 7.2788
rfingers 7.12502
rthumb 10.0752 -22.46
lclavicle 2.48481e-015 4.37326e-015
lhumerus -119.866 38.209 -41.0775
lradius 12.3864
lwrist -110.646
lhand -4.44693 27.5756
lfingers 7.12502
lthumb 21.3247 56.4223
rfemur 2.51683 -3.78093 19.9089
rtibia 38.1564
rfoot -0.650087 7.43918
rtoes -9.24788
lfemur -40.2415 -1.97696 -20.2998
ltibia 31.0456
lfoot -7.43518 0.549193
ltoes -2.42272
